<?xml version="1.0" encoding="UTF-8"?>
<svg id="Capa_2" data-name="Capa 2" xmlns="http://www.w3.org/2000/svg" viewBox="0 0 94.04 93.94">
  <defs>
    <style>
      .cls-1 {
        fill: #252525;
        stroke-width: 0px;
      }
    </style>
  </defs>
  <g id="Capa_1-2" data-name="Capa 1">
    <path class="cls-1" d="M23.37,29.72v-5.89h-5.79v-5.79h-5.89v-5.89h-5.8v-5.79H0V0h6.36v5.79h5.89v5.89h5.79v5.79h5.89v5.89h5.79v6.36h-6.36ZM17.57,41.41v-5.89h-5.89v-5.8h-5.8v-5.89H0v-6.36h6.36v5.89h5.89v5.79h5.79v5.89h5.89v6.36h-6.36ZM18.04,58.89v5.89h-5.79v5.79h-5.89v5.89H0v-6.36h5.89v-5.89h5.8v-5.8h5.89v-5.89h6.36v6.36h-5.89ZM23.93,70.57v5.89h-5.89v5.79h-5.79v5.89h-5.89v5.79H0v-6.36h5.89v-5.79h5.8v-5.89h5.89v-5.79h5.79v-5.89h6.36v6.36h-5.79ZM35.05,23.84v-5.79h-5.79v-5.89h-5.89v-5.79h-5.79V0h6.36v5.79h5.79v5.89h5.89v5.79h5.79v6.36h-6.36ZM35.61,76.46v5.79h-5.89v5.89h-5.79v5.79h-6.36v-6.36h5.79v-5.79h5.89v-5.89h5.79v-5.79h6.36v6.36h-5.79ZM58.98,58.89v5.89h-23.93v-5.89h-5.79v-23.84h5.79v-5.89h23.93v5.89h5.8v23.84h-5.8ZM70.67,6.36v5.79h-5.89v5.89h-5.8v5.79h-6.36v-6.36h5.8v-5.79h5.89v-5.89h5.8V0h6.36v6.36h-5.8ZM70.11,93.94v-5.79h-5.8v-5.89h-5.89v-5.79h-5.8v-6.36h6.36v5.79h5.8v5.89h5.89v5.79h5.8v6.36h-6.36ZM88.15,6.36v5.79h-5.8v5.89h-5.89v5.79h-5.8v5.89h-6.36v-6.36h5.8v-5.89h5.89v-5.79h5.8v-5.89h5.89V0h6.36v6.36h-5.89ZM87.68,93.94v-5.79h-5.89v-5.89h-5.8v-5.79h-5.89v-5.89h-5.8v-6.36h6.36v5.89h5.8v5.79h5.89v5.89h5.8v5.79h5.89v6.36h-6.36ZM88.15,23.84v5.89h-5.8v5.8h-5.89v5.89h-6.36v-6.36h5.89v-5.89h5.8v-5.79h5.89v-5.89h6.36v6.36h-5.89ZM87.68,76.46v-5.89h-5.89v-5.79h-5.8v-5.89h-5.89v-6.36h6.36v5.89h5.89v5.8h5.8v5.89h5.89v6.36h-6.36Z"/>
  </g>
</svg>