<?xml version="1.0" encoding="UTF-8"?>
<svg id="Capa_2" data-name="Capa 2" xmlns="http://www.w3.org/2000/svg" viewBox="0 0 152.8 152.8">
  <defs>
    <style>
      .cls-1 {
        fill: #252525;
        stroke-width: 0px;
      }
    </style>
  </defs>
  <g id="Capa_1-2" data-name="Capa 1">
    <path class="cls-1" d="M142.75,102.08v20.25h-10.21v10.21h-10.05v10.05h-20.25v10.21h-51.53v-10.21h-20.25v-10.05h-10.21v-10.21h-10.05v-20.25H0v-51.53h10.21v-20.25h10.05v-10.05h10.21v-10.21h20.25V0h51.53v10.05h20.25v10.21h10.05v10.05h10.21v20.25h10.05v51.53h-10.05ZM141.78,51.53h-10.05v-20.25h-10.21v-10.21h-20.25v-10.05h-49.74v10.05h-20.25v10.21h-10.05v20.25h-10.21v49.75h10.21v20.25h10.05v10.05h20.25v10.21h49.74v-10.21h20.25v-10.05h10.21v-20.25h10.05v-49.75ZM30.46,61.57v-21.06h21.07v21.06h-21.07ZM92.04,102.08v10.21h-10.05v10.05h-31.27v-10.05h-10.21v-11.02h11.02v10.05h29.49v-10.05h10.21v-10.21h11.02v11.02h-10.21ZM50.72,81.83v-11.02h21.06v11.02h-21.06ZM81.02,61.57v-21.06h21.23v21.06h-21.23Z"/>
  </g>
</svg>