<?xml version="1.0" encoding="UTF-8"?>
<svg id="Capa_2" data-name="Capa 2" xmlns="http://www.w3.org/2000/svg" viewBox="0 0 76.46 76.46">
  <defs>
    <style>
      .cls-1 {
        fill: #252525;
        stroke-width: 0px;
      }
    </style>
  </defs>
  <g id="Capa_1-2" data-name="Capa 1">
    <path class="cls-1" d="M0,76.46v-6.36h11.68v-17.57h5.89v-5.79h5.8v-5.89h5.89v-5.33h-5.89v-5.79h-5.8v-5.89h-5.89V6.36H0V0h76.46v6.36h-11.68v17.48h-5.79v5.89h-5.89v5.79h-5.79v5.33h5.79v5.89h5.89v5.79h5.79v17.57h11.68v6.36H0ZM58.42,6.36H18.04v11.12h40.38V6.36ZM35.05,41.41h-5.33v5.79h-5.8v5.89h-5.89v11.12h17.01v-22.81ZM58.42,53.09h-5.79v-5.89h-5.89v-5.79h-5.33v22.81h17.01v-11.12Z"/>
  </g>
</svg>