<?xml version="1.0" encoding="UTF-8"?>
<svg id="Capa_2" data-name="Capa 2" xmlns="http://www.w3.org/2000/svg" viewBox="0 0 173.05 132.54">
  <defs>
    <style>
      .cls-1 {
        fill: #252525;
        stroke-width: 0px;
      }
    </style>
  </defs>
  <g id="Capa_1-2" data-name="Capa 1">
    <path class="cls-1" d="M151.99,41.32v-10.05h-20.25v-10.21h-20.25v-10.05h-49.74v10.05h-20.25v10.21h-20.25v10.05h-10.21v10.21H0v-11.02h10.21v-10.21h10.05v-10.05h20.25v-10.21h20.25V0h51.53v10.05h20.25v10.21h20.25v10.05h10.21v11.02h-11.02ZM163.01,92.04v10.05h-10.21v10.21h-20.25v10.05h-20.25v10.21h-51.53v-10.21h-20.25v-10.05h-10.05v-10.21h-10.21v-10.05h-10.05v-21.23h10.05v-10.05h10.21v-10.21h10.05v-10.05h20.25v-10.21h51.53v10.21h20.25v10.05h20.25v10.21h10.21v10.05h10.05v21.23h-10.05ZM111.48,112.29h-40.51v-10.21h-10.21v-41.32h10.21v-10.21h40.51v-9.24h-49.74v10.21h-20.25v10.05h-10.21v10.21h-10.05v19.28h10.05v10.21h10.21v10.05h20.25v10.21h49.74v-9.24ZM101.27,71.78h-19.28v19.28h19.28v-19.28ZM162.04,71.78h-10.05v-10.21h-20.25v-10.05h-19.44v9.24h10.21v41.32h-10.21v9.24h19.44v-10.05h20.25v-10.21h10.05v-19.28Z"/>
  </g>
</svg>