<?xml version="1.0" encoding="UTF-8"?>
<svg id="Capa_2" data-name="Capa 2" xmlns="http://www.w3.org/2000/svg" viewBox="0 0 183.94 65.43">
  <defs>
    <style>
      .cls-1 {
        fill: #000;
        stroke-width: 0px;
      }
    </style>
  </defs>
  <g id="Capa_1-2" data-name="Capa 1">
    <path class="cls-1" d="M8.41,65.43V10.84H0V0h20.56v10.84h-8.41v54.59h-3.74Z"/>
    <path class="cls-1" d="M23.3,65.43v-10.84h5.23V10.84h-5.23V0h14.11v10.84h-5.14v43.75h5.14v10.84h-14.11Z"/>
    <path class="cls-1" d="M44.92,65.43l-4.77-10.28V10.28L44.92,0h9.16l4.77,10.28v6.54h-3.74l-2.8-5.98h-5.61l-2.8,5.98v31.78l2.8,5.98h5.61l2.8-5.98h3.74v6.54l-4.77,10.28h-9.16Z"/>
    <path class="cls-1" d="M62.59,65.43V0h3.74v25.33h5.23L82.5,0h4.3l-13.27,30.29,14.21,35.15h-4.77l-11.4-29.07h-5.23v29.07h-3.74Z"/>
    <path class="cls-1" d="M101.66,65.43V10.84h-8.41V0h20.57v10.84h-8.41v54.59h-3.74Z"/>
    <path class="cls-1" d="M113.55,65.43V20.56L121.03,0h4.02l7.57,20.56v44.87h-3.74v-16.92h-11.59v16.92h-3.74ZM117.29,37.48h11.59v-12.25l-3.83-10.28h-4.02l-3.74,10.28v12.25Z"/>
    <path class="cls-1" d="M141.13,65.43l-4.77-10.28v-5.61h3.74l2.8,5.98h5.61l2.8-5.98v-6.26l-2.8-5.98h-7.38l-4.77-10.28V10.28l4.77-10.28h9.16l4.77,10.28v5.61h-3.74l-2.8-5.98h-5.61l-2.71,5.98v4.86l2.71,5.7h7.38l4.77,10.28v18.41l-4.77,10.28h-9.16Z"/>
    <path class="cls-1" d="M158.79,65.43V0h3.74v25.33h5.23L178.7,0h4.3l-13.27,30.29,14.21,35.15h-4.77l-11.4-29.07h-5.23v29.07h-3.74Z"/>
  </g>
</svg>